<svg xmlns="http://www.w3.org/2000/svg" viewBox="0 0 291.04 55.35"><g id="Layer_2" data-name="Layer 2"><g id="Layer_1-2" data-name="Layer 1"><path d="M41.81,54.49c-.09-3.38-2-5.33-3.63-7.06-3-3.17-5.83-6.59-9.68-9a11.52,11.52,0,0,1-5-6.35,7.66,7.66,0,0,0-1.38-2c-1.67,2,.07,3.88.41,5.87-1.73-1.91-4.95.54-6-2.93l3.29-3.92-5.93-7.49c1.2-3.22,5-5,5.94-8.61L14,6.9c2.07-1.3,3.9-.59,5.59-.72s3.66,0,5.58,0C25.76,4.82,24.1,4.8,23.92,4s-.29-1.81-.49-3.12l4.3,1.57L26.56.15c1.13,0,2.34-.37,3,.07,1.8,1.2,3.71.84,5.62.93,3.93.18,7.43,1.33,10.22,4.3,1.74,1.86,3.35,4,6.21,4.27a2.56,2.56,0,0,1,1.31.44c2.57,2.13,5.1,4.3,7.63,6.45L48.2,30.23c-2.25-.32-3.57-2.05-5.32-3-1.52-.81-3.37-2.17-5.5-.45a16.32,16.32,0,0,0,6,6.26c2.83,1.84,3.55,4.49,4.2,7.35a9.53,9.53,0,0,1,0,2v3.28l-1.74,1.63c-2-9.41-10.11-12.55-16.88-17.12a4.69,4.69,0,0,0,1.68,2.51,23.42,23.42,0,0,0,2.13,2.1,17.79,17.79,0,0,0,2.76,1.78,14.63,14.63,0,0,1,7.37,8.36c.1.28.45.47.7.71C43.44,48.51,44.12,51.51,41.81,54.49ZM33.07,11.54c-3.51-.22-4.51.31-4.51,2,.82.84,1.39,2.34,3,1.2l-.8-.91Z"/><path d="M290.56,20.66l-2.72,2.6h-6.15c3.48,2.5,6.18,4.42,9.35,6.69h-9l-9.45-7-4.07,1.08V30h-6.73V10.29h24.51l4.27,3.08ZM269,15.15c-1.1,1.76-.28,3,.95,3.83h12.42l1.45-2-1.71-1.84Z"/><path d="M137.15,23.15l1.56,2.91h16.64v4H133.07l-2.5-2.5V12.64c1.55-1.89,3.81-2.36,6-2.43,6.28-.18,12.56-.06,18.93-.06v5H137.66V18h15.7l.25,5.18Z"/><path d="M213.39,11.82l1.54-1.54h5.51V30h-6.86V23.32H198.71V30h-6.93V10.27h6.73v7.78h14.88Z"/><path d="M74.73,10.24h8.75L95.64,29.9H88.13l-2.86-3.75H72.86L69.8,30.06H62.5ZM83.37,22l-4.29-6.19c-1.43,2.23-2.57,4-4,6.19Z"/><path d="M234.75,26.32l-3,3.73h-7.11L236.8,10.23h8.64c4,6.43,8.09,12.91,12.33,19.66h-6.84c-.82-.78-2.32-1.57-2.54-3.57Zm10-4.4a9.07,9.07,0,0,0-4.07-5.85c-.7,2.3-2.77,3.54-3.17,5.85Z"/><path d="M187.54,11.19V15h-9.85V29.91h-8V15.29h-10V10.15h9.13c3.15,0,6.31-.14,9.45,0S184.5,9.27,187.54,11.19Z"/><path d="M99.64,30V10.32h6.79a70.08,70.08,0,0,1,.12,7.58c0,2.64,0,5.27,0,8.08h15.82l.21,4Z"/><path d="M219.24,42.51c-2.81-1.51-1.73-2.3-.51-3.19l-.93-1.65L219.09,35l7-1.1-.41.85,3.56,1.45-3.44,1.48c.3,1.86,1,3.37.54,4A5.94,5.94,0,0,1,222.77,44c-2.46.33-5.12.52-3.53-1.53,4.55.05,4.91-.43,5.27-.91-.47-.47-.93-.94-1.31-1.31h-3.54L218.26,43C220.33,43,222,43,219.24,42.51ZM220.31,37l3.61,1.5-.39-.87,2.14-.8C223.81,34.61,222.32,34.6,220.31,37Z"/><path d="M114.55,35.61c3.07-2.23,6.4-1.23,9.8-1.52l.21,1.9-6.35-1-1.62,1.7c1.77,2.41,5.72,1.24,7.16,4.79L120.17,44H112.7v-2.7c1.1-.1,1.32,1.13,2.35,1.66h4.17l1.25-1.26C119.28,39,114.24,40.21,114.55,35.61Z"/><path d="M147.78,44h-5l-.11-.46,1.58-.6,1.17-3.66-3-1.55-3,3.21.91,3h-6L137.38,42V37.88c.29-.32.4-.55.51-.55,3.11,0,6.22,0,9.67,0,0,1.26,0,2.55,0,3.83C147.5,42,146.22,42.83,147.78,44Z"/><path d="M206.47,35.21c1-2.28,2.95-.5,4.38-1.19,1.14,1.27,3.05,1.95,2.65,4.61-2,2.14-4,4.88-7.94,4.52,1-.83,2-1.65,3.57-2.92H204c-2.42-3.67-1.77-4.78,2.44-5-.38,1.15-.71,2.39-1.06,3.72h5V35.28C209.09,35.28,207.83,35.28,206.47,35.21Z"/><path d="M10,23.08c2,2.21,4.21,3.91,5.73,6.06-1.52,2.6-3.31-.51-5.11.84-1.1.83-3.38.07-5.74,0Z"/><path d="M168.43,38.21c.39-.4.64-1,.92-1,1.63-.09,3.26,0,5,0L176,40.07h-8.82l1.47,3.08h3.88c-.26.33-.5.93-.77,1-1.48.1-3,0-4.79,0l-2.54-3c.95-1.36,1.7-3.17,4-3,1,1.65,2.49.65,3.71.83a5.43,5.43,0,0,0,.26-.77C171.06,38.27,169.81,38.27,168.43,38.21Z"/><path d="M19.18,44.49l-9.43,3v-6.6C12.7,42.63,16.25,41.86,19.18,44.49Z"/><path d="M192.67,36.64l-2.31-1.08,5-1c1.18,2.83-2.36,5.28-1.8,8.26l2.57.92c-2.8.75-5,.26-7.95.55a14.33,14.33,0,0,0,2.3-2.07,12.1,12.1,0,0,0,1-2.54C191.93,38.66,192.29,37.66,192.67,36.64Z"/><path d="M22.66,42.73c-.55-2.4,1.17-3.18,2.26-4.46l7.57,6C28.42,43.94,25.38,44.85,22.66,42.73Z"/><path d="M128.39,37.24h4l-1.87,5.12,1,1.64h-4.76c-.34-1.14,1.11-1.25,1.57-2.47Z"/><path d="M240.54,42.46v1.45H229.11L234,41.39Z"/><path d="M18.91,47.42A16.38,16.38,0,0,0,17.59,50c-.14.62.12,1.36-.07,2a10.85,10.85,0,0,1-1.15,2l-5.59-2.33Z"/><path d="M156.56,38.15l-2,1.63v1.76c1.51,1,3.05,1.9,5,1.61-.26.33-.5.93-.78,1-1.47.1-2.95,0-4.78,0l-2.59-3,2.53-3Z"/><path d="M235.56,35.15c1.24-2,3.13-.42,4.77-1.23l1.54,3.23c-1.77,2.18-3.52,3.89-6.31,4,.46-2.24,3.92-2,3.78-4.83Z"/><path d="M12.44,8.51l4.28,4.33-7,.77C8.61,11.13,11.21,10.49,12.44,8.51Z"/><path d="M28.37,54.6l2.28-4.48,4,2.27c-.36.45-.55.92-.87,1-.86.32-1.81.4-2.66.74a12.13,12.13,0,0,0-1.89,1.18Z"/><path d="M21.05,39.63l-3.44,1a14.32,14.32,0,0,1-3.71-4.51l6.73,2.32Z"/><path d="M2.6,31.39,7,37.56,0,34.85Z"/><path d="M6.3,25,2.16,28.76.79,24.25,2.38,23Z"/><path d="M1.81,43.29h3.4l1,1L4,47.32C1.69,46.58,1.18,45.29,1.81,43.29Z"/><path d="M7.35,20.9h-5c.57-2.11,1.92-3,3.57-4.12Z"/><path d="M10.66,20.27l-1.93-3.8,4.66-1.39C14,17.57,11.58,17.89,10.66,20.27Z"/><path d="M12.7,32.63c-2.1,3.23-2.11,3.23-5.33.94C9.22,33.16,10.34,31.32,12.7,32.63Z"/><path d="M2.73,37.51c1.4,1.56,3.63.79,3.93,3.4H2.73Z"/><path d="M34.53,48h-5.9C31.05,45.49,32,45.49,34.53,48Z"/><path d="M2.61,5.78l-1.87-2C1.44,2,2.82,2,5.09,2.32Z"/><path d="M27.17,50.31c-1.82,1.16-2.22,3-4.48,2.82l-.16-2.82Z"/><path d="M19.09,2l1.14,1.83L15.41,4.9c.35-.67.5-1.4.94-1.71A15.05,15.05,0,0,1,19.09,2Z"/><path d="M156.54,37.4h5.85l.15,1.26-6-.77Z"/><path d="M3.28,50.53l4.4,1.77-.15.61H3.74Z"/><path d="M129,36l3.19-2.31c.18,1,.27,1.56.41,2.31Z"/><path d="M1.27,11.85,3.53,15l-3.11.2Z"/><path d="M6.64,10.81V7.07l2.5.55Z"/><path d="M25.63,46.31l-.41,2.31L22,46.31Z"/><path d="M8.65,4.13V2.35l1.47-.28C10.89,3.4,10.88,4.22,8.65,4.13Z"/><path d="M205.6,43.75a6,6,0,0,1-1.25.38,3.66,3.66,0,0,1-2.75-.72c.68-.09,1.36-.21,2-.26s1.36,0,2,0Z"/><path d="M235.56,35.15c-.08,1.49-1.24.84-2,1C233.65,34.65,234.8,35.3,235.56,35.15Z"/><path d="M159.53,42.37l1.92-.17.08.65-1.95.38Z"/><path d="M172.53,42.37l1.92-.17.08.65-1.95.38Z"/><path d="M233.67,36.24l-.7.81-.32-.31.82-.7Z"/><ellipse cx="2.06" cy="9.65" rx="0.24" ry="0.71"/></g></g></svg>